<?xml version="1.0" encoding="UTF-8"?>
<svg width="200" height="200" viewBox="0 0 200 200" xmlns="http://www.w3.org/2000/svg">
  <path d="M 74.392 58.927 Z C 75.849 70.22 85.75 83.159 61.503 88.159 C 101.256 86.077 94.252 74.908 107.314 74.341 C 110.027 79.3257 119.618 87.213 121.511 84.562 C 123.972 83.237 113.5603 77.937 115.075 69.608 C 120.186 74.908 130.976 77.558 133.437 76.801 C 137.413 74.34 121.511 72.258 116.779 63.55 C 130.219 65.254 131.166 58.629 125.267 50.922 C 125.367 49.277 125.949 47.451 123.903 44.822 C 121.495 46.448 121.334 47.25 120.592 49.618 C 117.517 48.509 117.533 48.743 114.934 49.517 C 114.673 46.909 113.811 45.846 111.403 43.819 C 107.571 45.946 109.018 50.867 108.829 50.489 C 106.368 53.518 106.368 54.275 108.071 57.114 C 90.938 47.785 81.149 50.309 74.392 58.873" fill="none" stroke="black"/>
</svg>
